<svg width="185" height="204" viewBox="0 0 185 204" fill="none" xmlns="http://www.w3.org/2000/svg">
<rect x="0.5" y="0.5" width="184" height="203" rx="41.5" fill="#FAFAFA"/>
<rect x="0.5" y="0.5" width="184" height="203" rx="41.5" stroke="#D3D3D3"/>
<g clip-path="url(#clip0_509_449)">
<path d="M139.307 128.972C139.366 128.867 139.487 128.722 139.553 128.758C144.179 131.297 149.018 134.06 153.559 136.792C154.201 137.032 154.631 137.397 154.846 137.885L154.686 138.393C154.141 138.787 153.564 139.136 152.983 139.473C135.203 149.759 116.944 160.274 98.9215 170.631C96.8353 171.83 94.6877 172.918 92.5391 174.001H92.3851L30.0781 137.885L30.2821 137.414C35.29 134.542 40.2968 131.67 45.3016 128.798L45.6169 128.972L45.8978 128.78L92.4496 155.608L138.988 128.801L139.307 128.972Z" fill="url(#paint0_linear_509_449)"/>
<path d="M155 137.885H154.846L154.538 137.526V66.0005L154.846 65.8093H155V137.885Z" fill="url(#paint1_linear_509_449)"/>
<path d="M92.385 30.0011L92.7211 30.2059C93.1269 35.9392 93.2726 41.975 92.6972 47.672L92.385 47.8278L92.4475 48.1469C87.2856 51.066 82.1986 54.0663 77.1844 57.1486L77.1553 110.799L76.8473 110.99C76.9087 111.094 76.9722 111.271 76.9087 111.309C72.42 114 67.7305 116.675 63.1232 119.217C62.5176 119.705 61.912 119.934 61.3085 119.903C61.0037 120.107 60.8403 119.668 60.8424 119.408C60.9069 106.09 60.8726 92.7802 60.6894 79.4637L60.8372 66.4589C55.7887 69.3001 50.812 72.2068 45.9092 75.179L45.9248 128.78L45.6168 128.971L30.078 137.885L30 65.9622L91.7659 30.2246C91.9584 30.1248 92.1634 30.0126 92.385 30.0022V30.0011Z" fill="url(#paint2_linear_509_449)"/>
<path d="M154.846 65.8093V137.885L139.307 128.972L138.999 128.825C139.024 110.873 139.009 92.937 138.955 75.0167C133.968 72.0082 128.957 69.1566 123.923 66.4609V119.713L123.614 119.905L123.104 119.967C113.092 114.223 108.085 111.351 108.085 111.351L108.077 110.991L107.769 110.845L107.739 57.1942L107.475 56.8492L92.3931 48.1884L92.3848 47.8288C92.3744 47.436 92.518 47.0722 92.545 46.6815C92.8645 42.0985 92.7448 35.7874 92.5461 31.1473C92.5294 30.7482 92.4452 30.3887 92.3848 30.001C92.5836 29.9917 92.775 30.0229 92.9519 30.1195L154.846 65.8083V65.8093Z" fill="url(#paint3_linear_509_449)"/>
<path d="M76.8464 110.991L92.4611 119.895L108.076 110.991L123.615 119.905L92.4611 137.873C82.0176 131.989 71.6314 125.992 61.3076 119.905L76.8464 110.991Z" fill="url(#paint4_linear_509_449)"/>
</g>
<defs>
<linearGradient id="paint0_linear_509_449" x1="73.1319" y1="123.973" x2="121.314" y2="213.466" gradientUnits="userSpaceOnUse">
<stop stop-color="#5A7EB9"/>
<stop offset="1" stop-color="#2B3E5C"/>
</linearGradient>
<linearGradient id="paint1_linear_509_449" x1="154.538" y1="101.847" x2="155" y2="101.847" gradientUnits="userSpaceOnUse">
<stop stop-color="#5476AD"/>
<stop offset="0.39" stop-color="#4F70A4"/>
<stop offset="1" stop-color="#4B6A9B"/>
</linearGradient>
<linearGradient id="paint2_linear_509_449" x1="85.3105" y1="32.9355" x2="157.198" y2="43.8829" gradientUnits="userSpaceOnUse">
<stop stop-color="#5A7EB9"/>
<stop offset="1" stop-color="#2B3E5C"/>
</linearGradient>
<linearGradient id="paint3_linear_509_449" x1="113.938" y1="18.6031" x2="207.105" y2="54.9377" gradientUnits="userSpaceOnUse">
<stop stop-color="#5A7EB9"/>
<stop offset="1" stop-color="#2B3E5C"/>
</linearGradient>
<linearGradient id="paint4_linear_509_449" x1="73.6275" y1="75.6625" x2="141.505" y2="150.16" gradientUnits="userSpaceOnUse">
<stop stop-color="#5A7EB9"/>
<stop offset="1" stop-color="#2B3E5C"/>
</linearGradient>
<clipPath id="clip0_509_449">
<rect width="125" height="144" fill="white" transform="translate(30 30)"/>
</clipPath>
</defs>
</svg>
