<svg width="514" height="174" viewBox="0 0 514 174" fill="none" xmlns="http://www.w3.org/2000/svg">
<rect width="514" height="174" rx="42" fill="#FAFAFA" fill-opacity="0.980392"/>
<rect x="0.5" y="0.5" width="513" height="173" rx="41.5" stroke="#D3D3D3" stroke-opacity="0.827451"/>
<path d="M169.712 125H160.4V57.8H169.712V125ZM195.194 83.048C206.81 83.048 216.218 92.456 216.218 104.072V125H206.81V104.072C206.81 97.64 201.626 92.456 195.194 92.456C188.762 92.456 183.578 97.64 183.578 104.072V125H174.266V83.048H183.578V86.6C186.842 84.392 190.874 83.048 195.194 83.048ZM252.935 65H262.343V125H257.639L253.607 121.064C250.151 123.56 245.927 125 241.319 125C229.703 125 220.391 115.688 220.391 104.072C220.391 92.456 229.703 83.048 241.319 83.048C245.639 83.048 249.671 84.392 252.935 86.6V65ZM241.319 115.688C247.751 115.688 252.935 110.504 252.935 104.072C252.935 97.64 247.751 92.456 241.319 92.456C234.887 92.456 229.703 97.64 229.703 104.072C229.703 110.504 234.887 115.688 241.319 115.688ZM287.444 83.048C296.372 83.048 300.404 87.08 305.492 92.648L283.028 114.824C284.372 115.4 285.908 115.688 287.444 115.688C291.668 115.688 295.316 113.48 297.428 110.12L304.052 116.84C300.212 121.832 294.26 125 287.444 125C275.828 125 266.516 115.688 266.516 104.072C266.516 92.456 275.828 83.048 287.444 83.048ZM276.5 108.104L291.668 93.224C290.324 92.648 288.98 92.456 287.444 92.456C281.012 92.456 275.828 97.64 275.828 104.072C275.828 105.512 276.02 106.856 276.5 108.104ZM318.953 83.048L330.569 113.864L342.185 83.048H351.593L335.753 125H325.481L309.641 83.048H318.953ZM355.766 83.048H365.078V86.6C368.342 84.392 372.374 83.048 376.694 83.048C388.31 83.048 397.718 92.456 397.718 104.072C397.718 115.688 388.31 125 376.694 125C372.374 125 368.342 123.752 365.078 121.544V143.144H355.766V83.048ZM365.078 104.072C365.078 110.504 370.262 115.688 376.694 115.688C383.126 115.688 388.31 110.504 388.31 104.072C388.31 97.64 383.126 92.456 376.694 92.456C370.262 92.456 365.078 97.64 365.078 104.072ZM411.203 86.6C414.467 84.392 418.499 83.048 422.819 83.048C429.923 83.048 435.683 88.808 435.683 95.912H426.275C426.275 93.992 424.739 92.456 422.819 92.456C416.387 92.456 411.203 97.64 411.203 104.072V125H401.891V83.048H411.203V86.6ZM460.694 83.048C472.31 83.048 481.718 92.456 481.718 104.072C481.718 115.688 472.31 125 460.694 125C449.078 125 439.766 115.688 439.766 104.072C439.766 92.456 449.078 83.048 460.694 83.048ZM460.694 115.688C467.126 115.688 472.31 110.504 472.31 104.072C472.31 97.64 467.126 92.456 460.694 92.456C454.262 92.456 449.078 97.64 449.078 104.072C449.078 110.504 454.262 115.688 460.694 115.688Z" fill="black"/>
<path d="M412 60C407.029 60 402.53 62.015 399.272 65.2725C396.015 68.5294 394 73.0295 394 78C394 73.0295 391.985 68.5294 388.728 65.2725C385.471 62.0148 380.971 60 376 60C380.971 60 385.471 57.985 388.728 54.7275C391.985 51.4706 394 46.9705 394 42C394 51.941 402.059 60.0002 412 60.0002V60Z" fill="black"/>
<path d="M129.659 71.9115C129.659 72.5078 129.521 73.0726 129.273 73.5731L128.935 74.1288L108.07 108.52L104.654 102.889C104.601 102.791 104.543 102.697 104.481 102.604C104.48 102.603 104.479 102.6 104.477 102.599C103.886 101.727 102.885 101.153 101.752 101.153C100.619 101.153 99.618 101.727 99.0252 102.599C99.024 102.6 99.0229 102.603 99.0212 102.604C98.9619 102.693 98.9078 102.782 98.857 102.875C98.6022 103.341 98.4586 103.876 98.4586 104.444C98.4586 105.013 98.6022 105.543 98.8542 106.01L86.0828 84.9594L89.9291 78.621L108.74 47.6153L109.097 47.0265C109.783 46.0951 110.889 45.4909 112.136 45.4909C113.382 45.4909 114.557 46.1339 115.238 47.1148L115.479 47.5121L123.963 61.4948L128.943 69.7051L129.265 70.2357C129.517 70.7402 129.658 71.3085 129.658 71.911L129.659 71.9115Z" fill="url(#paint0_linear_490_362)"/>
<path d="M104.224 114.86L93.3025 132.863L92.623 133.982C90.8857 136.447 88.018 138.057 84.7747 138.057C82.5095 138.057 80.4267 137.272 78.7868 135.959C78.0179 135.346 77.347 134.617 76.7987 133.798L76.3524 133.063L66.6253 117.032L44.7447 80.9677L44.6501 80.8115C44.3349 80.2632 44.1548 79.6265 44.1548 78.9493C44.1548 76.8768 45.8351 75.1976 47.9065 75.1976H78.0487C79.4053 75.1976 80.5926 75.9163 81.2504 76.9942C81.2555 77.0016 81.2589 77.0079 81.2629 77.013L85.1925 83.4911L85.8053 84.4994L86.084 84.9594L98.8554 106.01L98.8577 106.014C98.9078 106.108 98.9626 106.197 99.0218 106.285L103.946 114.399L104.224 114.86Z" fill="url(#paint1_linear_490_362)"/>
<path d="M79.2206 53.0383C74.6185 53.0383 70.4518 54.9039 67.4353 57.9203C64.4189 60.9362 62.5538 65.1029 62.5538 69.7057C62.5538 65.1035 60.6882 60.9362 57.6724 57.9203C54.6559 54.9039 50.4892 53.0383 45.8865 53.0383C50.4887 53.0383 54.6559 51.1727 57.6724 48.1562C60.6882 45.1404 62.5538 40.9737 62.5538 36.3709C62.5538 45.5758 70.0157 53.0383 79.2206 53.0383Z" fill="url(#paint2_linear_490_362)"/>
<defs>
<linearGradient id="paint0_linear_490_362" x1="86.5086" y1="86.0515" x2="129.001" y2="69.5118" gradientUnits="userSpaceOnUse">
<stop stop-color="#00264B"/>
<stop offset="1" stop-color="#034B93"/>
</linearGradient>
<linearGradient id="paint1_linear_490_362" x1="56.2639" y1="110.764" x2="96.5292" y2="95.0911" gradientUnits="userSpaceOnUse">
<stop stop-color="#E66C17"/>
<stop offset="1" stop-color="#FFDB00"/>
</linearGradient>
<linearGradient id="paint2_linear_490_362" x1="46.8389" y1="59.155" x2="86.1929" y2="43.8373" gradientUnits="userSpaceOnUse">
<stop stop-color="#E66C17"/>
<stop offset="1" stop-color="#FFDB00"/>
</linearGradient>
</defs>
</svg>
