<svg width="400" height="159" viewBox="0 0 400 159" fill="none" xmlns="http://www.w3.org/2000/svg">
<rect x="0.5" y="0.5" width="399.005" height="158" rx="41.5" fill="#FAFAFA"/>
<rect x="0.5" y="0.5" width="399.005" height="158" rx="41.5" stroke="#D3D3D3"/>
<g clip-path="url(#clip0_504_426)">
<path d="M355.762 30.4024C351.669 31.3331 349.18 33.9644 347.063 37.4547L345.226 40.8286V31.4272H324.178V53.7377L323.281 50.1435C320.317 40.0365 312.948 33.5313 302.741 31.2465C294.56 29.4172 283.721 29.4469 275.817 32.3753C266.752 35.7343 259.756 43.6283 258.008 53.2105C257.874 53.3862 257.815 53.1981 257.795 53.0545C257.681 52.1634 257.847 51.0198 257.8 50.0865C257.084 36.024 248.717 28.9271 234.699 30.1573C227.773 30.7663 223.272 33.8209 218.574 38.6676C218.389 38.8583 217.708 39.836 217.47 39.7816C215.888 36.972 213.877 34.4372 211.128 32.6921C205.782 29.3033 196.303 29.3999 190.484 31.5039C186.099 33.0906 182.592 36.3383 179.571 39.7791V31.4272H158.523V89.846H180.809L180.804 58.9112C181.005 54.5645 182.08 49.7004 186.591 47.9973C191.957 45.9725 196.608 49.5395 196.657 55.1041L196.652 89.846H219.191L219.186 57.8543C219.456 54.0075 220.622 49.7672 224.52 48.131C230.252 45.7274 235.143 49.7202 235.286 55.5274L235.281 89.846H257.82V68.0998C258.028 68.1369 257.993 68.3226 258.038 68.4662C259.001 71.6668 259.583 74.016 261.301 76.974C268.599 89.5341 280.366 91.7074 294.045 91.2322C307.334 90.7668 316.568 87.2023 323.455 75.4517C323.521 75.3378 323.942 74.61 323.898 74.5704L301.894 72.5505C301.572 72.6025 300.99 73.5407 300.723 73.8278C296.999 77.8082 291.184 79.3454 286.173 76.7092C282.149 74.5927 280.557 70.397 280.093 66.0824H324.428V89.846H346.691C346.835 82.6897 346.501 75.5012 346.687 68.3424C346.828 62.8619 347.355 53.0545 351.758 49.2771C355.15 46.3636 359.412 47.574 363.104 49.1286L370.005 33.1723C365.696 30.8579 360.675 29.2885 355.767 30.4024H355.762ZM280.096 55.4383C280.376 52.9679 280.883 50.2549 282.275 48.1508C284.989 44.0442 289.634 42.601 294.371 43.7719C299.797 45.111 301.795 50.3563 302.117 55.4383H280.096Z" fill="url(#paint0_linear_504_426)"/>
<path d="M52.5336 31.4272L52.5287 64.6887C52.7614 69.4514 54.4131 73.4516 59.7345 73.7313C66.9105 74.1075 69.2679 67.4686 69.3719 61.4114L69.367 31.4272H91.9055V89.8459H70.8576V80.4445L68.7999 82.8753C63.8698 88.2097 58.7712 90.8905 51.3846 91.2247C37.441 91.8535 30.525 83.915 30 70.4638L30.005 31.4272H52.5336Z" fill="url(#paint1_linear_504_426)"/>
<path d="M156.035 89.846H133.506L133.511 56.1611C133.405 50.443 129.978 46.6012 124.032 47.7003C117.983 48.8192 116.841 55.1635 116.668 60.3915L116.673 89.846H94.1343V31.4272H115.182V40.7247C118.416 36.9522 122.069 33.2714 126.845 31.5312C132.34 29.5286 140.175 29.4296 145.551 31.8307C153.128 35.217 155.73 42.7619 156.04 50.594L156.035 89.8435V89.846Z" fill="url(#paint2_linear_504_426)"/>
<path d="M92.2598 128.214L96.6006 96.8067C96.8606 96.8166 97.185 96.7201 97.3311 96.9775L109.942 122.504C110.059 122.59 111.002 120.61 111.091 120.427C114.93 112.619 118.684 104.77 122.554 96.9775C122.685 96.7423 122.982 96.7671 123.185 96.8537L127.732 128.214H124.713L121.588 105.797L110.482 128.15L109.673 128.222L98.3488 105.688L95.3303 128.214H92.2598Z" fill="url(#paint3_linear_504_426)"/>
<path d="M310.058 113.114C309.979 114.575 309.892 116.013 309.563 117.491C305.613 135.096 277.6 131.378 276.49 113.973C275.401 96.9082 295.206 90.7742 307.144 101.124C307.473 101.408 307.738 101.849 308.151 101.968C308.248 102.104 307.696 102.589 307.572 102.708C306.97 103.285 306.309 103.842 305.678 104.389C303.088 101.817 299.452 99.7474 295.788 99.2449C284.726 97.7251 275.54 109.047 281.703 119.13C287.576 128.739 304.405 128.375 306.458 116.087H296.439V113.117H310.056L310.058 113.114Z" fill="url(#paint4_linear_504_426)"/>
<path d="M261.774 120.699V96.777H264.993V128.214L264.253 128.157L243.45 104.503V128.214H239.983V96.777L240.726 96.8315L261.457 120.538L261.774 120.699Z" fill="url(#paint5_linear_504_426)"/>
<path d="M152.093 97.0592L151.394 96.9874L136.507 128.212H140.085L144.815 118.063L158.137 118.008L158.449 118.12L163.288 128.212H166.603L152.093 97.0592ZM146.261 114.847L151.555 103.532L156.953 114.847H146.261Z" fill="url(#paint6_linear_504_426)"/>
<path d="M215.303 97.0592L214.605 96.9874L199.718 128.212H203.296L208.028 118.063L221.35 118.008L221.66 118.12L226.501 128.212H229.816L215.303 97.0592ZM209.472 114.847L214.766 103.532L220.166 114.847H209.472Z" fill="url(#paint7_linear_504_426)"/>
<path d="M180.059 96.777V125.244H192.192V128.214H176.84V96.777H180.059Z" fill="url(#paint8_linear_504_426)"/>
</g>
<defs>
<linearGradient id="paint0_linear_504_426" x1="210.784" y1="-8.48075" x2="308.258" y2="119.187" gradientUnits="userSpaceOnUse">
<stop stop-color="#5A7EB9"/>
<stop offset="0.15" stop-color="#5071A6"/>
<stop offset="0.52" stop-color="#3C557E"/>
<stop offset="0.82" stop-color="#2F4465"/>
<stop offset="1" stop-color="#2B3E5C"/>
</linearGradient>
<linearGradient id="paint1_linear_504_426" x1="38.0923" y1="25.2511" x2="89.0655" y2="92.0139" gradientUnits="userSpaceOnUse">
<stop stop-color="#5A7EB9"/>
<stop offset="1" stop-color="#587CB6"/>
</linearGradient>
<linearGradient id="paint2_linear_504_426" x1="93.2998" y1="32.8406" x2="151.976" y2="92.9504" gradientUnits="userSpaceOnUse">
<stop offset="0.17" stop-color="#587CB6"/>
<stop offset="0.65" stop-color="#4E6EA1"/>
<stop offset="1" stop-color="#4A6898"/>
</linearGradient>
<linearGradient id="paint3_linear_504_426" x1="96.036" y1="97.2374" x2="122.649" y2="132.092" gradientUnits="userSpaceOnUse">
<stop stop-color="#5476AD"/>
<stop offset="0.39" stop-color="#4F70A4"/>
<stop offset="1" stop-color="#4B6A9B"/>
</linearGradient>
<linearGradient id="paint4_linear_504_426" x1="283.709" y1="98.7994" x2="304.354" y2="125.837" gradientUnits="userSpaceOnUse">
<stop stop-color="#32486A"/>
<stop offset="1" stop-color="#304465"/>
</linearGradient>
<linearGradient id="paint5_linear_504_426" x1="240.295" y1="96.5369" x2="264.671" y2="128.46" gradientUnits="userSpaceOnUse">
<stop stop-color="#395178"/>
<stop offset="0.34" stop-color="#354C71"/>
<stop offset="1" stop-color="#314768"/>
</linearGradient>
<linearGradient id="paint6_linear_504_426" x1="139.362" y1="106.174" x2="160.022" y2="133.236" gradientUnits="userSpaceOnUse">
<stop stop-color="#4C6B9C"/>
<stop offset="1" stop-color="#476594"/>
</linearGradient>
<linearGradient id="paint7_linear_504_426" x1="202.573" y1="106.174" x2="223.235" y2="133.239" gradientUnits="userSpaceOnUse">
<stop stop-color="#415D88"/>
<stop offset="0.39" stop-color="#3C567F"/>
<stop offset="1" stop-color="#385076"/>
</linearGradient>
<linearGradient id="paint8_linear_504_426" x1="170.27" y1="101.79" x2="191.089" y2="129.055" gradientUnits="userSpaceOnUse">
<stop stop-color="#486595"/>
<stop offset="0.3" stop-color="#44618F"/>
<stop offset="1" stop-color="#405B86"/>
</linearGradient>
<clipPath id="clip0_504_426">
<rect width="340.005" height="98.9997" fill="white" transform="translate(30 30)"/>
</clipPath>
</defs>
</svg>
